<svg xmlns="http://www.w3.org/2000/svg" xmlns:xlink="http://www.w3.org/1999/xlink" version="1.1" x="0px" y="0px" viewBox="0 0 100 100" style="enable-background:new 0 0 100 100;" xml:space="preserve"><g><g><path d="M18.34,77.42c-2.19,0-3.97,1.78-3.97,3.97s1.78,3.97,3.97,3.97s3.97-1.78,3.97-3.97    S20.53,77.42,18.34,77.42z M18.34,82.71c-0.73,0-1.32-0.59-1.32-1.32s0.59-1.32,1.32-1.32s1.32,0.59,1.32,1.32    S19.07,82.71,18.34,82.71z"></path><path d="M87.07,76.07c1.33-1.32,1.72-3.32,1.01-5.05c-0.72-1.73-2.41-2.86-4.28-2.86h-4.63    c-1.23,0-2.4,0.49-3.28,1.35l-6.58,6.58H25.93c-0.37-0.52-0.79-1.01-1.26-1.45l1.98-13.66c0.18-1.27-0.11-2.55-0.81-3.62    l5.19-35.49h8.08c1.04,0.85,2.34,1.32,3.69,1.32c3.29,0,5.95-2.66,5.95-5.95s-2.66-5.95-5.95-5.95c-1.35,0.01-2.65,0.47-3.69,1.32    H24.29c-1.23,0-2.4,0.49-3.28,1.35c-1.16,1.16-1.62,2.85-1.2,4.44c0.42,1.59,1.65,2.83,3.23,3.27l-5.05,34.54    c-0.98,0.82-1.62,1.98-1.81,3.24L14.2,73.12c-3.62,1.81-5.65,5.76-5,9.76s3.82,7.11,7.83,7.67s7.92-1.54,9.65-5.2h44.15    c1.49,3.13,4.6,5.16,8.06,5.27c3.46,0.11,6.69-1.73,8.37-4.76c1.68-3.03,1.52-6.75-0.41-9.62C86.92,76.18,87.01,76.14,87.07,76.07    L87.07,76.07z M23.47,55.37c-0.41-0.18-0.84-0.31-1.29-0.38c-0.44-0.06-0.89-0.06-1.34,0l4.84-33.11h2.67L23.47,55.37z     M42.81,13.95c1.83,0,3.31,1.48,3.31,3.31s-1.48,3.31-3.31,3.31c-1.83,0-3.31-1.48-3.31-3.31S40.98,13.95,42.81,13.95z     M22.31,17.25c0-0.53,0.21-1.03,0.58-1.4c0.37-0.37,0.88-0.58,1.4-0.58l12.93,0c-0.24,0.64-0.36,1.31-0.36,1.98    c0.01,0.68,0.13,1.35,0.36,1.98H24.29C23.2,19.24,22.31,18.35,22.31,17.25z M18.8,59.85c0.21-1.45,1.55-2.45,3-2.24    c1.45,0.21,2.45,1.55,2.24,3L22.24,73c-1.63-0.78-3.45-1.04-5.24-0.76L18.8,59.85z M18.34,88c-3.65,0-6.61-2.96-6.61-6.61    s2.96-6.61,6.61-6.61s6.61,2.96,6.61,6.61C24.95,85.04,21.99,88,18.34,88z M27.21,78.74h42.65c0.35,0,0.69-0.14,0.93-0.39    l6.97-6.97c0.37-0.37,0.88-0.58,1.4-0.58h4.63c0.8,0,1.53,0.48,1.84,1.22c0.31,0.74,0.14,1.6-0.43,2.17    c-0.21,0.21-0.46,0.37-0.74,0.47c-0.21,0.07-0.44,0.11-0.66,0.11h-3.26c-0.35,0-0.69,0.14-0.93,0.39l-6.97,6.97    c-0.29,0.29-0.67,0.49-1.08,0.56c-0.1,0.01-0.22,0.02-0.33,0.02H27.49C27.7,81.38,27.6,80.03,27.21,78.74L27.21,78.74z     M80.49,81.39c0,0.73-0.59,1.32-1.32,1.32s-1.32-0.59-1.32-1.32s0.59-1.32,1.32-1.32S80.49,80.66,80.49,81.39z M79.17,88    c-2.33,0-4.49-1.24-5.67-3.25c0.37-0.2,0.71-0.45,1.02-0.75l1.03-1.03c0.71,1.63,2.42,2.59,4.18,2.35    c1.76-0.24,3.15-1.63,3.39-3.39c0.24-1.76-0.72-3.47-2.35-4.18l0.34-0.34h2.71c0.19,0,0.39-0.02,0.58-0.05    c0.91,1.14,1.4,2.56,1.4,4.02C85.78,85.04,82.82,88,79.17,88L79.17,88z"></path></g></g></svg>